<svg width="30" height="30" viewBox="0 0 30 30" fill="none" xmlns="http://www.w3.org/2000/svg">
<path d="M29.6219 27.8389L21.0144 19.2253C22.7113 17.1903 23.7319 14.5896 23.7319 11.7492C23.7319 5.26898 18.4138 0 11.8721 0C5.33046 0 0 5.27513 0 11.7553C0 18.2355 5.31817 23.5045 11.8598 23.5045C14.6388 23.5045 17.1964 22.5515 19.2253 20.9591L27.8635 29.5973C28.3677 30.1014 29.1177 30.1014 29.6219 29.5973C30.126 29.0931 30.126 28.3431 29.6219 27.8389ZM2.52075 11.7553C2.52075 6.66462 6.7138 2.5269 11.8598 2.5269C17.0058 2.5269 21.1989 6.66462 21.1989 11.7553C21.1989 16.846 17.0058 20.9837 11.8598 20.9837C6.7138 20.9837 2.52075 16.8398 2.52075 11.7553Z" fill="white"/>
</svg>
