<svg width="20" height="20" viewBox="0 0 20 20" fill="none" xmlns="http://www.w3.org/2000/svg">
<path d="M10.035 14.6656C10.8638 14.6656 11.5357 13.9937 11.5357 13.1648C11.5357 12.336 10.8638 11.6641 10.035 11.6641C9.2061 11.6641 8.53418 12.336 8.53418 13.1648C8.53418 13.9937 9.2061 14.6656 10.035 14.6656Z" fill="#D6E33A"/>
<path d="M10.7359 5.33398H9.40156C8.95996 5.33398 8.60156 5.69561 8.60156 6.13399V10.3996C8.60156 10.838 8.96318 11.1996 9.40156 11.1996H10.7359C11.1743 11.1996 11.5359 10.838 11.5359 10.3996V6.13399C11.5359 5.69561 11.1744 5.33398 10.7359 5.33398Z" fill="#D6E33A"/>
<path d="M10 0C4.47361 0 0 4.47361 0 10C0 15.5264 4.47361 20 10 20C15.5264 20 20 15.5264 20 10C20 4.47361 15.5264 0 10 0ZM10.0096 17.1392C6.07043 17.1392 2.87361 13.9456 2.87361 10.0032C2.87361 6.06077 6.06721 2.86716 10.0096 2.86716C13.952 2.86716 17.1456 6.06077 17.1456 10.0032C17.1456 13.9456 13.9488 17.1392 10.0096 17.1392Z" fill="#D6E33A"/>
</svg>
