<svg width="40" height="40" viewBox="0 0 40 40" fill="none" xmlns="http://www.w3.org/2000/svg">
<path d="M16.5631 18.3336C16.4525 18.7989 16.6823 19.274 17.1111 19.4864C17.7969 19.8264 18.2271 20.586 18.0947 21.3998L16.9765 28.2758C16.8405 29.1113 17.4076 29.8989 18.2431 30.0349C19.48 30.2362 20.744 30.146 21.9356 29.7758C22.2783 29.6691 22.5374 29.3851 22.6205 29.0362L22.8103 28.2358C22.9209 27.7704 22.6911 27.2953 22.2623 27.0829C21.5765 26.7429 21.1463 25.9833 21.2787 25.1696L22.3969 18.2936C22.5329 17.458 21.9658 16.6704 21.1303 16.5344C19.8934 16.3331 18.6294 16.4233 17.4378 16.7936C17.0951 16.9002 16.836 17.1842 16.7529 17.5331L16.5631 18.3336Z" fill="white"/>
<path d="M20.9302 14.9307C22.33 14.9307 23.4648 13.7959 23.4648 12.396C23.4648 10.9961 22.33 9.86133 20.9302 9.86133C19.5303 9.86133 18.3955 10.9961 18.3955 12.396C18.3955 13.7959 19.5303 14.9307 20.9302 14.9307Z" fill="white"/>
<path d="M20 40C8.972 40 0 31.028 0 20C0 8.972 8.972 0 20 0C31.028 0 40 8.972 40 20C40 31.028 31.028 40 20 40ZM20 3.15467C10.7116 3.15467 3.15467 10.7116 3.15467 20C3.15467 29.2884 10.7116 36.8453 20 36.8453C29.2884 36.8453 36.8453 29.2884 36.8453 20C36.8453 10.7116 29.2884 3.15467 20 3.15467Z" fill="white"/>
</svg>
