<svg width="40" height="38" viewBox="0 0 40 38" fill="none" xmlns="http://www.w3.org/2000/svg">
<path fill-rule="evenodd" clip-rule="evenodd" d="M19.9078 19.0898C19.9078 19.976 21.4054 20.8604 23.252 20.8604C25.0986 20.8604 26.5968 19.9763 26.5968 19.0898C26.5968 18.2057 25.0989 17.3195 23.252 17.3195C21.4052 17.3195 19.9078 18.2057 19.9078 19.0898ZM5.67682 20.5109C5.67682 29.865 13.362 37.4473 22.8423 37.4473C32.316 37.4473 40 29.8642 40 20.5109C40 11.1576 32.3157 3.57534 22.8423 3.57534C20.1703 3.57534 17.6428 4.17921 15.3873 5.25192C15.5235 5.84766 15.5997 6.46844 15.5997 7.10694C15.5997 11.6866 11.8378 15.3965 7.19981 15.3965C6.96146 15.3965 6.7234 15.3881 6.48505 15.3625C5.96585 16.9881 5.67661 18.7157 5.67661 20.5113L5.67682 20.5109ZM34.2136 18.5797L20.8945 26.8947L12.2053 22.9632L13.1506 22.3841L20.8955 25.8219L33.2697 18.0855L34.2136 18.5797ZM34.2136 20.3666L20.8945 28.6816L12.2053 24.7501L13.1506 24.1716L20.8955 27.6091L33.2697 19.8726L34.2136 20.3666ZM34.2136 16.7922L20.8945 25.1072L12.2053 21.1751L25.5245 12.8593L34.2136 16.7922ZM0 7.10632C0 11.03 3.22543 14.2136 7.20035 14.2136C11.1834 14.2136 14.4001 11.0303 14.4001 7.10632C14.4001 3.183 11.1828 0 7.20035 0C3.2255 0 0 3.18331 0 7.10632ZM8.14456 4.33194V6.37495H10.221C10.6303 6.37495 10.9614 6.70671 10.9614 7.10628C10.9614 7.51519 10.6297 7.83852 10.221 7.83852H8.14456V9.8897C8.14456 10.2893 7.79592 10.596 7.38762 10.596C6.97871 10.596 6.66412 10.2893 6.66412 9.8897V7.83852H4.59581C4.1875 7.83852 3.85543 7.51489 3.85543 7.10628C3.85543 6.70611 4.1875 6.37495 4.59581 6.37495H6.66412V4.33194C6.66412 3.92303 6.99619 3.6006 7.40449 3.6006C7.8128 3.6006 8.14456 3.92333 8.14456 4.33194Z" fill="white"/>
</svg>
