<svg width="40" height="40" viewBox="0 0 40 40" fill="none" xmlns="http://www.w3.org/2000/svg">
<path d="M28.7627 17.839C27.7929 17.839 27.0065 17.0526 27.0065 16.0827V10.0395C27.0065 6.56208 24.1772 3.7332 20.7002 3.7332H19.2553C15.7779 3.7332 12.949 6.56208 12.949 10.0395V16.0827C12.949 17.0526 12.1627 17.839 11.1928 17.839C10.2229 17.839 9.43652 17.0526 9.43652 16.0827V10.0395C9.43608 4.62538 13.8408 0.220703 19.2548 0.220703H20.6998C26.1139 0.220703 30.5186 4.62538 30.5186 10.0395V16.0827C30.519 17.0526 29.7326 17.839 28.7627 17.839Z" fill="white"/>
<path d="M30.2881 14.3262H9.66705C7.26626 14.3262 5.31287 16.2791 5.31287 18.6799V35.3823C5.31287 37.7831 7.26626 39.736 9.66705 39.736H30.2885C32.6893 39.736 34.6422 37.7831 34.6422 35.3823V18.6799C34.6418 16.2796 32.6889 14.3262 30.2881 14.3262ZM24.5262 32.7628C24.5262 32.9648 24.3625 33.1286 24.1605 33.1286H15.7946C15.5926 33.1286 15.4289 32.9648 15.4289 32.7628V30.9153C15.4289 29.1006 16.79 27.5916 18.5409 27.3496C17.7203 26.8575 17.1667 25.9613 17.1667 24.9401V23.5241C17.1667 21.9782 18.4316 20.7132 19.9776 20.7132C21.5235 20.7132 22.7884 21.9782 22.7884 23.5241V24.9401C22.7884 25.9613 22.2348 26.8575 21.4142 27.3496C23.1651 27.5916 24.5262 29.1002 24.5262 30.9153V32.7628Z" fill="white"/>
</svg>
