<svg width="40" height="40" viewBox="0 0 40 40" fill="none" xmlns="http://www.w3.org/2000/svg">
<g clip-path="url(#clip0_1134_238)">
<path d="M24.8188 30.0806L24.8427 30.0521C25.4953 30.627 26.3071 31.0236 27.2029 31.1662L27.4741 31.2013L27.4735 34.0534C25.8034 33.9496 24.2806 33.2989 23.0797 32.2772L22.8439 32.068L24.8188 30.0806ZM31.1775 29.9337L33.1041 31.871C33.1306 31.8973 33.1571 31.9185 33.1864 31.9355C32.009 33.0813 30.4614 33.8446 28.7416 34.0262L28.4171 34.0534L28.4165 31.2013C29.4809 31.095 30.4411 30.6323 31.1775 29.9337ZM23.2312 26.9598L23.257 26.9575C23.3357 27.7588 23.6129 28.5015 24.0384 29.1351L24.2048 29.3675L24.1526 29.4105L22.1909 31.3839C21.2409 30.2558 20.6128 28.8447 20.4494 27.2941L20.4216 26.9597L23.2312 26.9598ZM32.6337 26.9575L32.6594 26.9598L35.469 26.9597C35.3763 28.4721 34.8428 29.8646 33.9961 31.0087L33.8099 31.25L33.7705 31.2009L31.7969 29.2157C32.2537 28.5649 32.5516 27.7931 32.6337 26.9575ZM27.9453 22.6948C30.0269 22.6948 31.7144 24.3921 31.7144 26.4859C31.7144 28.5796 30.0269 30.2769 27.9453 30.2769C25.8637 30.2769 24.1762 28.5796 24.1762 26.4859C24.1762 24.3921 25.8637 22.6948 27.9453 22.6948ZM31.6429 5.94531C33.2317 5.94531 34.5196 7.24716 34.5196 8.85306L34.5189 9.77017L29.2927 9.77096L29.2925 9.46569C29.2925 8.39509 28.4339 7.52718 27.3748 7.52718C27.0054 7.52718 26.6438 7.63502 26.3336 7.83773L19.7066 12.1682C18.8171 12.7494 18.5621 13.9494 19.1371 14.8485C19.2845 15.0789 19.4786 15.2751 19.7066 15.4241L24.277 18.4111C21.2888 19.7661 19.2089 22.7885 19.2089 26.2994C19.2089 27.3199 19.3846 28.2991 19.7072 29.2081L2.87664 29.2072C1.28792 29.2072 0 27.9053 0 26.2994V8.85306C0 7.24716 1.28792 5.94531 2.87664 5.94531H31.6429ZM22.1904 21.5884L24.1526 23.5612L24.2048 23.6042C23.743 24.2097 23.4233 24.9306 23.2957 25.7165L23.257 26.0142L23.2312 26.012L20.4216 26.0118C20.5248 24.3302 21.1728 22.7969 22.1904 21.5884ZM31.6084 23.5054L33.6141 21.4879C34.61 22.6298 35.2704 24.0752 35.4402 25.6682L35.469 26.0118L32.6594 26.012L32.6337 26.0142C32.5501 25.1632 32.2426 24.3783 31.7714 23.72L31.6084 23.5054ZM10.1857 22.4225H4.73019C4.23607 22.4225 3.83552 22.823 3.83552 23.3172C3.83552 23.7733 4.1768 24.1497 4.61795 24.2049L4.73019 24.2118H10.1857C10.6798 24.2118 11.0804 23.8113 11.0804 23.3172C11.0804 22.823 10.6798 22.4225 10.1857 22.4225ZM18.3894 22.4225H12.9339C12.4398 22.4225 12.0392 22.823 12.0392 23.3172C12.0392 23.7733 12.3805 24.1497 12.8217 24.2049L12.9339 24.2118H18.3894C18.8835 24.2118 19.2841 23.8113 19.2841 23.3172C19.2841 22.823 18.8835 22.4225 18.3894 22.4225ZM27.4735 18.9184L27.4745 21.7602L27.4763 21.7702C26.4724 21.87 25.5611 22.2868 24.8455 22.9201L24.8325 22.9054L24.8188 22.8911L22.8429 20.9047C24.0773 19.7624 25.6916 19.029 27.4735 18.9184ZM28.4165 21.7498L28.4171 18.9184C30.0367 19.019 31.518 19.634 32.7013 20.603L32.9502 20.816L30.9457 22.832C30.3141 22.3067 29.544 21.9439 28.6988 21.8073L28.4143 21.7702L28.4165 21.7498ZM29.5035 17.819L34.52 17.8199L34.5204 20.8945C33.2815 19.3398 31.5199 18.2248 29.5035 17.819ZM27.3745 9.46569L27.3761 11.7094L40 11.7098V15.8825L27.3761 15.882L27.3745 18.1266L20.7474 13.7961L27.3745 9.46569ZM8.62991 9.8223C8.05682 9.8223 7.54241 10.0764 7.191 10.4792C6.84073 10.0764 6.32636 9.8223 5.75327 9.8223C4.69413 9.8223 3.83552 10.6902 3.83552 11.7608C3.83552 12.8314 4.69413 13.6993 5.75327 13.6993C6.32636 13.6993 6.8407 13.4452 7.19212 13.0423C7.54239 13.4452 8.05682 13.6993 8.62991 13.6993C9.68905 13.6993 10.5477 12.8314 10.5477 11.7608C10.5477 10.6902 9.68905 9.8223 8.62991 9.8223Z" fill="white"/>
</g>
<defs>
<clipPath id="clip0_1134_238">
<rect width="40" height="40" fill="white"/>
</clipPath>
</defs>
</svg>
