<svg width="250" height="250" viewBox="0 0 250 250" fill="none" xmlns="http://www.w3.org/2000/svg">
<path d="M93.75 0H0V93.75H93.75V0ZM78.125 78.125H15.625V15.625H78.125V78.125Z" fill="white" fill-opacity="0.9"/>
<path d="M82.1431 32.1445H113.393V63.3945H82.1431V32.1445Z" fill="white" fill-opacity="0.9"/>
<path d="M0 250H93.75V156.25H0V250ZM15.625 171.875H78.125V234.375H15.625V171.875Z" fill="white" fill-opacity="0.9"/>
<path d="M31.25 187.5H62.5V218.75H31.25V187.5Z" fill="white" fill-opacity="0.9"/>
<path d="M156.25 0V93.75H250V0H156.25ZM234.375 78.125H171.875V15.625H234.375V78.125Z" fill="white" fill-opacity="0.9"/>
<path d="M187.5 31.25H218.75V62.5H187.5V31.25Z" fill="white" fill-opacity="0.9"/>
<path d="M31.25 108.928H0V140.178H46.875V124.553H31.25V108.928Z" fill="white" fill-opacity="0.9"/>
<path d="M109.375 140.625H140.625V171.875H109.375V140.625Z" fill="white" fill-opacity="0.9"/>
<path d="M33.9285 117.855H65.1785V133.48H33.9285V117.855Z" fill="white" fill-opacity="0.9"/>
<path d="M140.625 187.5H109.375V203.125H125V218.75H140.625V203.125V187.5Z" fill="white" fill-opacity="0.9"/>
<path d="M93.75 109.375V125H78.125V140.625H109.375V109.375H93.75Z" fill="white" fill-opacity="0.9"/>
<path d="M125 62.5H140.625V93.75H125V62.5Z" fill="white" fill-opacity="0.9"/>
<path d="M140.625 125V140.625H171.875V109.375H125V125H140.625Z" fill="white" fill-opacity="0.9"/>
<path d="M109.375 93.75H125V109.375H109.375V93.75Z" fill="white" fill-opacity="0.9"/>
<path d="M140.625 218.75H171.875V250H140.625V218.75Z" fill="white" fill-opacity="0.9"/>
<path d="M109.375 218.75H125V250H109.375V218.75Z" fill="white" fill-opacity="0.9"/>
<path d="M140.625 171.875H156.25V187.5H140.625V171.875Z" fill="white" fill-opacity="0.9"/>
<path d="M140.625 46.875V15.625H125V0H109.375V62.5H125V46.875H140.625Z" fill="white" fill-opacity="0.9"/>
<path d="M187.5 218.75H203.125V250H187.5V218.75Z" fill="white" fill-opacity="0.9"/>
<path d="M187.5 187.5H218.75V203.125H187.5V187.5Z" fill="white" fill-opacity="0.9"/>
<path d="M171.875 203.125H187.5V218.75H171.875V203.125Z" fill="white" fill-opacity="0.9"/>
<path d="M156.25 187.5H171.875V203.125H156.25V187.5Z" fill="white" fill-opacity="0.9"/>
<path d="M218.75 156.25V171.875H234.375V187.5H250V156.25H234.375H218.75Z" fill="white" fill-opacity="0.9"/>
<path d="M234.375 203.125H218.75V250H250V218.75H234.375V203.125Z" fill="white" fill-opacity="0.9"/>
<path d="M156.25 156.25V171.875H203.125V140.625H171.875V156.25H156.25Z" fill="white" fill-opacity="0.9"/>
<path d="M187.5 109.375V125H218.75V140.625H250V109.375H218.75H187.5Z" fill="white" fill-opacity="0.9"/>
</svg>
