<svg width="159" height="159" viewBox="0 0 159 159" fill="none" xmlns="http://www.w3.org/2000/svg">
<path d="M59.625 0H0V59.625H59.625V0ZM49.6875 49.6875H9.9375V9.9375H49.6875V49.6875Z" fill="#ECBF40" fill-opacity="0.9"/>
<path d="M52.2429 20.4434H72.1179V40.3184H52.2429V20.4434Z" fill="#ECBF40" fill-opacity="0.9"/>
<path d="M0 159H59.625V99.375H0V159ZM9.9375 109.312H49.6875V149.062H9.9375V109.312Z" fill="#ECBF40" fill-opacity="0.9"/>
<path d="M19.875 119.25H39.75V139.125H19.875V119.25Z" fill="#ECBF40" fill-opacity="0.9"/>
<path d="M99.375 0V59.625H159V0H99.375ZM149.062 49.6875H109.312V9.9375H149.062V49.6875Z" fill="#ECBF40" fill-opacity="0.9"/>
<path d="M119.25 19.875H139.125V39.75H119.25V19.875Z" fill="#ECBF40" fill-opacity="0.9"/>
<path d="M19.875 69.2793H0V89.1543H29.8125V79.2168H19.875V69.2793Z" fill="#ECBF40" fill-opacity="0.9"/>
<path d="M69.5625 89.4375H89.4375V109.312H69.5625V89.4375Z" fill="#ECBF40" fill-opacity="0.9"/>
<path d="M21.5784 74.9551H41.4534V84.8926H21.5784V74.9551Z" fill="#ECBF40" fill-opacity="0.9"/>
<path d="M89.4375 119.25H69.5625V129.188H79.5V139.125H89.4375V129.188V119.25Z" fill="#ECBF40" fill-opacity="0.9"/>
<path d="M59.625 69.5625V79.5H49.6875V89.4375H69.5625V69.5625H59.625Z" fill="#ECBF40" fill-opacity="0.9"/>
<path d="M79.5 39.75H89.4375V59.625H79.5V39.75Z" fill="#ECBF40" fill-opacity="0.9"/>
<path d="M89.4375 79.5V89.4375H109.312V69.5625H79.5V79.5H89.4375Z" fill="#ECBF40" fill-opacity="0.9"/>
<path d="M69.5625 59.625H79.5V69.5625H69.5625V59.625Z" fill="#ECBF40" fill-opacity="0.9"/>
<path d="M89.4375 139.125H109.312V159H89.4375V139.125Z" fill="#ECBF40" fill-opacity="0.9"/>
<path d="M69.5625 139.125H79.5V159H69.5625V139.125Z" fill="#ECBF40" fill-opacity="0.9"/>
<path d="M89.4375 109.312H99.375V119.25H89.4375V109.312Z" fill="#ECBF40" fill-opacity="0.9"/>
<path d="M89.4375 29.8125V9.9375H79.5V0H69.5625V39.75H79.5V29.8125H89.4375Z" fill="#ECBF40" fill-opacity="0.9"/>
<path d="M119.25 139.125H129.188V159H119.25V139.125Z" fill="#ECBF40" fill-opacity="0.9"/>
<path d="M119.25 119.25H139.125V129.188H119.25V119.25Z" fill="#ECBF40" fill-opacity="0.9"/>
<path d="M109.312 129.188H119.25V139.125H109.312V129.188Z" fill="#ECBF40" fill-opacity="0.9"/>
<path d="M99.375 119.25H109.312V129.188H99.375V119.25Z" fill="#ECBF40" fill-opacity="0.9"/>
<path d="M139.125 99.375V109.312H149.062V119.25H159V99.375H149.062H139.125Z" fill="#ECBF40" fill-opacity="0.9"/>
<path d="M149.062 129.188H139.125V159H159V139.125H149.062V129.188Z" fill="#ECBF40" fill-opacity="0.9"/>
<path d="M99.375 99.375V109.312H129.188V89.4375H109.312V99.375H99.375Z" fill="#ECBF40" fill-opacity="0.9"/>
<path d="M119.25 69.5625V79.5H139.125V89.4375H159V69.5625H139.125H119.25Z" fill="#ECBF40" fill-opacity="0.9"/>
</svg>
